<svg id="Layer_1" height="512" viewBox="0 0 128 128" width="512" xmlns="http://www.w3.org/2000/svg" data-name="Layer 1"><path d="m116.128 93.013-23.244-46.49a10.517 10.517 0 0 0 -18.813 0l-4.835 9.67-15.307-30.613a10.46 10.46 0 0 0 -9.406-5.813 10.46 10.46 0 0 0 -9.407 5.813l-23.244 46.49a10.5 10.5 0 0 0 -1.1 4.7v.005a10.494 10.494 0 0 0 10.506 10.515h32.41l-2.862 5.724a10.517 10.517 0 0 0 9.407 15.22h46.49a10.517 10.517 0 0 0 9.406-15.22zm-42.67-37.437h20.042l5.007 10.024h-30.06zm-6.758 13.524h33.56l5.7 11.394h-44.96zm-7.449 14.891h48.449l5.011 10.021h-58.471zm17.949-35.902a7.016 7.016 0 0 1 12.551 0l1.993 3.987h-16.536zm-46.5-5.846 23.569-8.158 4.131 8.271-33.568 11.62zm7.549-15.1a7.016 7.016 0 0 1 12.551 0l1.891 3.781-19.753 6.84zm-15.656 31.311 37.389-12.941 5.582 11.163-50.83 17.594c.082-.214.165-.427.269-.635zm-7.284 22.008a7.036 7.036 0 0 1 -.921-2.368l52.754-18.26.137.274-5.673 11.344-35.644 12.338h-4.684a6.973 6.973 0 0 1 -5.969-3.328zm21.354 3.328 22.7-7.858-3.925 7.858zm76.028 17.616a6.971 6.971 0 0 1 -5.968 3.328h-46.491a7 7 0 0 1 -7.006-7.221h60.5a6.977 6.977 0 0 1 -1.036 3.893z"/></svg>