<?xml version="1.0"?>
<svg xmlns="http://www.w3.org/2000/svg" viewBox="0 0 512 512" width="512" height="512"><g id="outline"><path d="M488,128H442.612a55.842,55.842,0,0,0,4.813-16H464a8,8,0,0,0,0-16H447.445a56.014,56.014,0,0,0-81.226-41.7L351.311,20.751a8,8,0,0,0-14.622,0l-32,72a2.238,2.238,0,0,0-.266,1.789A2.948,2.948,0,0,0,304,96v48H272V120a5.549,5.549,0,0,0-.048-.759,7.972,7.972,0,0,0-1.006-3.21l-32-56a8,8,0,0,0-13.892,0l-32,56a7.972,7.972,0,0,0-1.006,3.21A5.549,5.549,0,0,0,192,120v24H160a8,8,0,0,0-6.146,2.878L128,177.9V120h40a8,8,0,0,0,0-16H128a7.985,7.985,0,0,0-2.6.441A48.011,48.011,0,0,0,115.739,88H160a8,8,0,0,0,0-16H80a48.055,48.055,0,0,0-48,48v96a8,8,0,0,0,13.657,5.657l16.152-16.152,11.036,22.073a8,8,0,0,0,14.31,0l11.036-22.073,16.152,16.152A8,8,0,0,0,128,216v-8h16V320a8,8,0,0,0-6.4,3.2l-24,32A8,8,0,0,0,120,368h24v64H112a8.007,8.007,0,0,0-1.707.187L87.761,342.06a8,8,0,0,0-15.522,0l-6.482,25.926-9.912-49.555a8,8,0,0,0-15.69,0l-24,120A8,8,0,0,0,24,448H40v48H56V448H72v48H88V448h16v40a8,8,0,0,0,8,8H360a7.97,7.97,0,0,0,5.912-2.624A20.717,20.717,0,0,0,376,496h2.338a21.572,21.572,0,0,0,14.4-5.494,23.954,23.954,0,0,0,30.53,0,21.572,21.572,0,0,0,14.4,5.494H440c13.458,0,24-12.885,24-29.333V445.333C464,428.885,453.458,416,440,416h-2.338a21.711,21.711,0,0,0-2.234.115l-2.461-2.462A30.835,30.835,0,0,1,424,392a8,8,0,0,0-8-8H400a8,8,0,0,0-8,8,30.835,30.835,0,0,1-8.967,21.653l-2.461,2.462a21.711,21.711,0,0,0-2.234-.115H376a20.591,20.591,0,0,0-8,1.612V368h24.417A87.683,87.683,0,0,0,480,280.417V256a48,48,0,0,0-96,0v24a24.038,24.038,0,0,1-16,22.624V200a8,8,0,0,0-2.343-5.657l-6.428-6.427,21.011-13.132A8,8,0,0,0,384,168v-8.593c.566.082,1.13.178,1.7.242A55.98,55.98,0,0,0,431.181,144H488a8,8,0,0,0,0-16ZM112,196.687l-10.343-10.344a8,8,0,0,0-12.812,2.079L80,206.111l-8.845-17.689a8,8,0,0,0-5.874-4.318A7.914,7.914,0,0,0,64,184a8,8,0,0,0-5.657,2.343L48,196.687V120a32,32,0,0,1,64,0ZM48,360.79l8.692,43.455L49.754,432h-16ZM66.246,432,80,376.985,93.754,432ZM344,43.7,363.69,88H324.31ZM352,376H272v-6.111L284.944,344h54.112L352,369.889Zm-48,48h16v16H304Zm16-16H304V392h16Zm-64-40v64H208V368Zm0,80v8H216v-8Zm-40,24h40v8H216ZM232,80.125,250.214,112H213.786ZM208,128h48v16H208Zm-44.253,32H292.686l-32,32H137.08ZM160,208h96V320H160ZM148,336H256v16H136Zm12,32h32v64H160Zm8,80v32H152V448Zm-48,0h16v32H120Zm64,32V448h16v32Zm88,0V392h16v56a8,8,0,0,0,8,8h32a8,8,0,0,0,8-8V392h16v88Zm136,0a8.009,8.009,0,0,1-8-8V440a8,8,0,0,1,16,0v32A8.009,8.009,0,0,1,408,480Zm40-34.667v21.334C448,474.3,443.776,480,440,480h-2.338A5.668,5.668,0,0,1,432,474.338V437.662A5.668,5.668,0,0,1,437.662,432H440C443.776,432,448,437.7,448,445.333ZM408.7,400a47.184,47.184,0,0,0,6.706,17.176,23.933,23.933,0,0,0-14.82,0A47.184,47.184,0,0,0,407.3,400ZM376,432h2.338A5.668,5.668,0,0,1,384,437.662v36.676A5.668,5.668,0,0,1,378.338,480H376c-3.776,0-8-5.7-8-13.333V445.333C368,437.7,372.224,432,376,432Zm24-152V256a32,32,0,0,1,64,0v24.417A71.664,71.664,0,0,1,392.417,352H368V319.2A40.067,40.067,0,0,0,400,280Zm-48-76.686V335.479l-.845-3.057A8,8,0,0,0,344,328H280a8,8,0,0,0-7.155,4.422L272,333.805V203.314l32-32V208a8,8,0,0,0,12.24,6.784l29.065-18.165Zm16-39.748-25.9,16.187-.055.035L320,193.566V104h48Zm19.506-19.815c-1.178-.134-2.346-.335-3.506-.571V96a7.963,7.963,0,0,0-.693-3.248h0l-10.578-23.8A40.011,40.011,0,0,1,431.206,96H416a8,8,0,0,0,0,16h15.194a39.675,39.675,0,0,1-7.183,16H408a7.993,7.993,0,0,0-4.81,14.382A39.875,39.875,0,0,1,387.506,143.751Z"/><path d="M424,160a8,8,0,0,0,0,16h40a8,8,0,0,0,0-16Z"/><path d="M96,56h40a8,8,0,0,0,0-16H96a8,8,0,0,0,0,16Z"/><rect x="224" y="384" width="16" height="16"/><path d="M288,240v64a8,8,0,0,0,8,8h32a8,8,0,0,0,8-8V240a8,8,0,0,0-8-8H296A8,8,0,0,0,288,240Zm16,56V280h16v16Zm16-48v16H304V248Z"/><path d="M232,224H184a8,8,0,0,0-8,8v64a8,8,0,0,0,8,8h48a8,8,0,0,0,8-8V232A8,8,0,0,0,232,224Zm-8,16v16H192V240Zm-32,48V272h32v16Z"/><rect x="336" y="120" width="16" height="16"/><circle cx="416" cy="256" r="8"/><circle cx="448" cy="256" r="8"/><circle cx="64" cy="120" r="8"/><circle cx="96" cy="120" r="8"/><path d="M424,296a8,8,0,0,0,16,0V280a8,8,0,0,0-16,0Z"/><path d="M80,140a8,8,0,0,0-8,8v12a8,8,0,0,0,16,0V148A8,8,0,0,0,80,140Z"/></g></svg>
